<mxfile host="app.diagrams.net" agent="Mozilla/5.0 (Windows NT 10.0; Win64; x64) AppleWebKit/537.36 (KHTML, like Gecko) Chrome/131.0.0.0 Safari/537.36" version="26.0.4">
  <diagram name="Page-1" id="nCQGEIttukk-GXre_h8x">
    <mxGraphModel dx="2261" dy="746" grid="1" gridSize="10" guides="1" tooltips="1" connect="1" arrows="1" fold="1" page="1" pageScale="1" pageWidth="827" pageHeight="1169" math="0" shadow="0">
      <root>
        <mxCell id="0" />
        <mxCell id="1" parent="0" />
        <mxCell id="gtFNIvc0DqyE-bdIhMjR-26" style="edgeStyle=orthogonalEdgeStyle;rounded=0;orthogonalLoop=1;jettySize=auto;html=1;" parent="1" source="gtFNIvc0DqyE-bdIhMjR-1" target="gtFNIvc0DqyE-bdIhMjR-2" edge="1">
          <mxGeometry relative="1" as="geometry">
            <Array as="points">
              <mxPoint x="340" y="280" />
              <mxPoint x="60" y="280" />
            </Array>
          </mxGeometry>
        </mxCell>
        <mxCell id="gtFNIvc0DqyE-bdIhMjR-27" value="ResponseDTO&lt;div&gt;&lt;br&gt;&lt;/div&gt;" style="edgeLabel;html=1;align=center;verticalAlign=middle;resizable=0;points=[];" parent="gtFNIvc0DqyE-bdIhMjR-26" vertex="1" connectable="0">
          <mxGeometry x="0.2188" y="-6" relative="1" as="geometry">
            <mxPoint as="offset" />
          </mxGeometry>
        </mxCell>
        <mxCell id="gtFNIvc0DqyE-bdIhMjR-1" value="API DATA" style="ellipse;whiteSpace=wrap;html=1;" parent="1" vertex="1">
          <mxGeometry x="280" y="190" width="120" height="80" as="geometry" />
        </mxCell>
        <mxCell id="gtFNIvc0DqyE-bdIhMjR-21" style="edgeStyle=orthogonalEdgeStyle;rounded=0;orthogonalLoop=1;jettySize=auto;html=1;" parent="1" source="gtFNIvc0DqyE-bdIhMjR-2" target="gtFNIvc0DqyE-bdIhMjR-1" edge="1">
          <mxGeometry relative="1" as="geometry" />
        </mxCell>
        <mxCell id="gtFNIvc0DqyE-bdIhMjR-22" value="RequestDTO" style="edgeLabel;html=1;align=center;verticalAlign=middle;resizable=0;points=[];" parent="gtFNIvc0DqyE-bdIhMjR-21" vertex="1" connectable="0">
          <mxGeometry x="0.4091" y="-2" relative="1" as="geometry">
            <mxPoint as="offset" />
          </mxGeometry>
        </mxCell>
        <mxCell id="gtFNIvc0DqyE-bdIhMjR-2" value="Actor" style="shape=umlActor;verticalLabelPosition=bottom;verticalAlign=top;html=1;outlineConnect=0;" parent="1" vertex="1">
          <mxGeometry x="40" y="190" width="30" height="60" as="geometry" />
        </mxCell>
        <mxCell id="gtFNIvc0DqyE-bdIhMjR-5" value="BD H2" style="shape=cylinder3;whiteSpace=wrap;html=1;boundedLbl=1;backgroundOutline=1;size=15;" parent="1" vertex="1">
          <mxGeometry x="570" y="190" width="60" height="80" as="geometry" />
        </mxCell>
        <mxCell id="gtFNIvc0DqyE-bdIhMjR-6" style="edgeStyle=orthogonalEdgeStyle;rounded=0;orthogonalLoop=1;jettySize=auto;html=1;entryX=0.133;entryY=0.513;entryDx=0;entryDy=0;entryPerimeter=0;" parent="1" source="gtFNIvc0DqyE-bdIhMjR-1" target="gtFNIvc0DqyE-bdIhMjR-5" edge="1">
          <mxGeometry relative="1" as="geometry" />
        </mxCell>
        <mxCell id="gtFNIvc0DqyE-bdIhMjR-7" value="REDIS" style="shape=cylinder3;whiteSpace=wrap;html=1;boundedLbl=1;backgroundOutline=1;size=15;" parent="1" vertex="1">
          <mxGeometry x="240" y="310" width="60" height="80" as="geometry" />
        </mxCell>
        <mxCell id="gtFNIvc0DqyE-bdIhMjR-8" style="edgeStyle=orthogonalEdgeStyle;rounded=0;orthogonalLoop=1;jettySize=auto;html=1;entryX=1;entryY=0;entryDx=0;entryDy=52.5;entryPerimeter=0;" parent="1" source="gtFNIvc0DqyE-bdIhMjR-1" target="gtFNIvc0DqyE-bdIhMjR-7" edge="1">
          <mxGeometry relative="1" as="geometry" />
        </mxCell>
        <mxCell id="gtFNIvc0DqyE-bdIhMjR-15" style="edgeStyle=orthogonalEdgeStyle;rounded=0;orthogonalLoop=1;jettySize=auto;html=1;" parent="1" source="gtFNIvc0DqyE-bdIhMjR-9" target="gtFNIvc0DqyE-bdIhMjR-11" edge="1">
          <mxGeometry relative="1" as="geometry" />
        </mxCell>
        <mxCell id="gtFNIvc0DqyE-bdIhMjR-17" style="edgeStyle=orthogonalEdgeStyle;rounded=0;orthogonalLoop=1;jettySize=auto;html=1;" parent="1" source="gtFNIvc0DqyE-bdIhMjR-9" target="gtFNIvc0DqyE-bdIhMjR-16" edge="1">
          <mxGeometry relative="1" as="geometry" />
        </mxCell>
        <mxCell id="gtFNIvc0DqyE-bdIhMjR-9" value="API UX" style="ellipse;whiteSpace=wrap;html=1;" parent="1" vertex="1">
          <mxGeometry x="110" y="500" width="120" height="80" as="geometry" />
        </mxCell>
        <mxCell id="gtFNIvc0DqyE-bdIhMjR-10" value="API DATA" style="ellipse;whiteSpace=wrap;html=1;" parent="1" vertex="1">
          <mxGeometry x="550" y="505" width="120" height="80" as="geometry" />
        </mxCell>
        <mxCell id="gtFNIvc0DqyE-bdIhMjR-14" style="edgeStyle=orthogonalEdgeStyle;rounded=0;orthogonalLoop=1;jettySize=auto;html=1;entryX=0;entryY=0.5;entryDx=0;entryDy=0;" parent="1" source="gtFNIvc0DqyE-bdIhMjR-11" target="gtFNIvc0DqyE-bdIhMjR-10" edge="1">
          <mxGeometry relative="1" as="geometry" />
        </mxCell>
        <mxCell id="gtFNIvc0DqyE-bdIhMjR-11" value="API BS" style="ellipse;whiteSpace=wrap;html=1;" parent="1" vertex="1">
          <mxGeometry x="330" y="500" width="120" height="80" as="geometry" />
        </mxCell>
        <mxCell id="gtFNIvc0DqyE-bdIhMjR-12" value="BD H2" style="shape=cylinder3;whiteSpace=wrap;html=1;boundedLbl=1;backgroundOutline=1;size=15;" parent="1" vertex="1">
          <mxGeometry x="780" y="505" width="60" height="80" as="geometry" />
        </mxCell>
        <mxCell id="gtFNIvc0DqyE-bdIhMjR-13" style="edgeStyle=orthogonalEdgeStyle;rounded=0;orthogonalLoop=1;jettySize=auto;html=1;entryX=0;entryY=0.5;entryDx=0;entryDy=0;entryPerimeter=0;" parent="1" source="gtFNIvc0DqyE-bdIhMjR-10" target="gtFNIvc0DqyE-bdIhMjR-12" edge="1">
          <mxGeometry relative="1" as="geometry" />
        </mxCell>
        <mxCell id="gtFNIvc0DqyE-bdIhMjR-16" value="REDIS" style="shape=cylinder3;whiteSpace=wrap;html=1;boundedLbl=1;backgroundOutline=1;size=15;" parent="1" vertex="1">
          <mxGeometry x="140" y="640" width="60" height="80" as="geometry" />
        </mxCell>
        <mxCell id="gtFNIvc0DqyE-bdIhMjR-18" value="Actor" style="shape=umlActor;verticalLabelPosition=bottom;verticalAlign=top;html=1;outlineConnect=0;" parent="1" vertex="1">
          <mxGeometry x="-40" y="500" width="30" height="60" as="geometry" />
        </mxCell>
        <mxCell id="gtFNIvc0DqyE-bdIhMjR-19" style="edgeStyle=orthogonalEdgeStyle;rounded=0;orthogonalLoop=1;jettySize=auto;html=1;entryX=0.025;entryY=0.388;entryDx=0;entryDy=0;entryPerimeter=0;" parent="1" source="gtFNIvc0DqyE-bdIhMjR-18" target="gtFNIvc0DqyE-bdIhMjR-9" edge="1">
          <mxGeometry relative="1" as="geometry" />
        </mxCell>
        <mxCell id="gtFNIvc0DqyE-bdIhMjR-25" style="edgeStyle=orthogonalEdgeStyle;rounded=0;orthogonalLoop=1;jettySize=auto;html=1;entryX=0.5;entryY=0;entryDx=0;entryDy=0;" parent="1" source="gtFNIvc0DqyE-bdIhMjR-23" target="gtFNIvc0DqyE-bdIhMjR-1" edge="1">
          <mxGeometry relative="1" as="geometry" />
        </mxCell>
        <mxCell id="gtFNIvc0DqyE-bdIhMjR-23" value="RequestDTO - Entity" style="shape=process;whiteSpace=wrap;html=1;backgroundOutline=1;" parent="1" vertex="1">
          <mxGeometry x="280" y="60" width="120" height="60" as="geometry" />
        </mxCell>
      </root>
    </mxGraphModel>
  </diagram>
</mxfile>
